<?xml version="1.0" encoding="UTF-8"?>
<svg xmlns="http://www.w3.org/2000/svg" version="1.1" viewBox="0 0 800 800">
  <!-- Generator: Adobe Illustrator 29.8.2, SVG Export Plug-In . SVG Version: 2.1.1 Build 3)  -->
  <defs>
    <style>
      .st0 {
        fill: #fff;
      }
    </style>
  </defs>
  <g id="Layer_1" focusable="false">
    <path class="st0" d="M742.86,478.48c0,70.61-56.25,122.57-125.89,122.57-177.75,0-210.64-267.54-385.39-267.54-157.39,0-157.61,227.36,6,227.36,45.54,0,97.39-19.07,134.25-45.54,6-4.39,18.11-17.46,24.43-17.46s11.68,5.35,11.68,11.68c0,8.36-14.04,20.46-20.04,25.82-43.82,38.14-107.46,65.57-165.75,65.57-89.36.11-165-63.21-165-155.25s72.32-159.75,163.71-159.75c198.54,0,238.39,263.46,387.75,263.46,107.04,0,101.57-149.68,3.64-149.68-18.75,0-37.5,12.43-50.25,12.43-9,0-17.04-7.71-17.04-16.71,0-12.43,5.68-25.39,5.68-38.89,0-71.36-54.54-122.89-125.25-122.89-56.89,0-85.71,39.54-95.14,39.54-6.64,0-12-5.35-12-12,0-6,4.39-11.04,8.36-15.43,27.11-30.86,69.32-46.82,110.14-46.82,85.07,0,149.04,62.57,149.04,147.64,0,7.39-.32,14.68-1.29,22.07,12.75-3.32,25.82-5.04,38.46-5.04,65.04,0,119.89,48.54,119.89,114.86Z"/>
  </g>
</svg>