<?xml version="1.0" encoding="UTF-8"?>
<svg id="Capa_1" xmlns="http://www.w3.org/2000/svg" version="1.1" viewBox="0 0 800 800">
  <!-- Generator: Adobe Illustrator 29.8.2, SVG Export Plug-In . SVG Version: 2.1.1 Build 3)  -->
  <defs>
    <style>
      .st0 {
        fill: #e63b3b;
      }
    </style>
  </defs>
  <path class="st0" d="M498.17,452.04c-9.15,0-15.99,6.74-19.26,10.76-7.3,8.98-11.49,21.88-11.49,35.37s4.19,26.39,11.49,35.37c3.27,4.02,10.11,10.75,19.26,10.75s15.99-6.74,19.26-10.75c7.3-8.98,11.49-21.88,11.49-35.37s-4.19-26.39-11.49-35.37c-3.27-4.02-10.11-10.76-19.26-10.76Z"/>
  <path class="st0" d="M301.83,347.96c9.15,0,15.99-6.74,19.26-10.75,7.3-8.98,11.49-21.88,11.49-35.37s-4.19-26.39-11.49-35.37c-3.27-4.02-10.11-10.75-19.26-10.75s-15.99,6.74-19.26,10.75c-7.3,8.98-11.49,21.87-11.49,35.37s4.19,26.39,11.49,35.37c3.27,4.02,10.11,10.75,19.26,10.75Z"/>
  <path class="st0" d="M789.65,379.21l-97.93-74,35.74-117.46c2.38-7.82.95-16.3-3.85-22.91-4.8-6.61-12.43-10.58-20.6-10.73l-122.76-2.24-40.03-116.1c-2.66-7.73-8.81-13.76-16.59-16.29-7.77-2.53-16.29-1.26-22.99,3.43l-100.64,70.41-100.64-70.42c-6.7-4.69-15.21-5.96-22.99-3.43-7.78,2.53-13.92,8.56-16.59,16.29l-40.03,116.09-122.76,2.24c-8.17.15-15.8,4.12-20.6,10.73s-6.23,15.09-3.85,22.91l35.74,117.46L10.35,379.21c-6.52,4.92-10.35,12.62-10.35,20.79s3.83,15.87,10.35,20.79l97.93,74-35.74,117.46c-2.38,7.82-.95,16.3,3.85,22.91,4.8,6.61,12.43,10.58,20.6,10.73l122.76,2.24,40.03,116.09c2.66,7.73,8.81,13.76,16.58,16.29,7.77,2.53,16.29,1.26,22.99-3.43l100.64-70.41,100.64,70.41c4.43,3.1,9.66,4.71,14.94,4.71,2.7,0,5.42-.42,8.05-1.28,7.78-2.53,13.92-8.56,16.58-16.29l40.02-116.09,122.77-2.24c8.17-.15,15.8-4.12,20.6-10.73,4.8-6.61,6.24-15.09,3.85-22.91l-35.74-117.46,97.93-74.01c6.52-4.93,10.35-12.62,10.35-20.79s-3.83-15.87-10.35-20.79ZM301.83,219.52c36.97,0,66.94,36.85,66.94,82.31s-29.97,82.31-66.94,82.31-66.94-36.85-66.94-82.31c0-45.46,29.97-82.31,66.94-82.31ZM297.58,580.83c-4.19,5.82-10.97,9.3-18.15,9.3-4.68,0-9.18-1.45-12.99-4.19-9.99-7.18-12.28-21.15-5.1-31.14l241.09-335.62c4.18-5.82,10.97-9.3,18.15-9.3,4.68,0,9.18,1.45,12.99,4.19,9.99,7.18,12.28,21.15,5.1,31.14l-241.09,335.62ZM498.17,580.48c-36.97,0-66.94-36.85-66.94-82.31s29.97-82.31,66.94-82.31,66.94,36.85,66.94,82.31c0,45.46-29.97,82.31-66.94,82.31Z"/>
</svg>