<?xml version="1.0" encoding="UTF-8"?>
<svg id="_24x24_On_Light_Support" xmlns="http://www.w3.org/2000/svg" version="1.1" viewBox="0 0 800 800">
  <!-- Generator: Adobe Illustrator 29.8.2, SVG Export Plug-In . SVG Version: 2.1.1 Build 3)  -->
  <defs>
    <style>
      .st0 {
        fill: none;
      }

      .st1 {
        fill: #fff;
      }
    </style>
  </defs>
  <rect id="view-box" class="st0" width="800" height="800"/>
  <path id="Shape" class="st1" d="M325,666.7c-.05-50.61,40.93-91.68,91.54-91.73,32.71-.03,62.95,17.37,79.36,45.66,69.67-30.73,95.77-78.97,95.77-170.63v-100c0-133.07-75.03-225-191.67-225s-191.67,91.97-191.67,225v116.67c-.02,13.8-11.2,24.98-25,25h-33.33c-50.59-.06-91.59-41.04-91.67-91.63v-33.33c.06-50.61,41.06-91.63,91.67-91.7h15.93c25.23-119.03,111.6-200,234.07-200s208.8,80.97,234.03,200h15.93c50.6.07,91.59,41.07,91.67,91.67v33.33c-.06,50.6-41.06,91.61-91.67,91.67h-10.3c-2.63,80.83-54.88,151.64-131.33,178-.82,50.63-42.52,91-93.15,90.18s-91-42.52-90.18-93.15h0ZM375,666.7c0,23.01,18.65,41.67,41.67,41.67s41.67-18.65,41.67-41.67-18.65-41.67-41.67-41.67c-23,.02-41.65,18.66-41.67,41.67ZM641.67,441.7h8.3c23.02,0,41.68-18.65,41.7-41.67v-33.33c0-23.02-18.65-41.68-41.67-41.7h-8.33v116.7ZM108.33,366.7v33.33c.04,22.99,18.68,41.62,41.67,41.63h8.33v-116.67h-8.33c-23.02.02-41.67,18.68-41.67,41.7h0Z"/>
</svg>